<?xml version="1.0" encoding="UTF-8" standalone="no"?>
<svg
   viewBox="0 0 377.95334 75.59053"
   height="75.59053"
   width="377.95334"
   xml:space="preserve"
   id="svg2"
   version="1.1"
   sodipodi:docname="logotype.svg"
   inkscape:version="1.4 (86a8ad7, 2024-10-11)"
   xmlns:inkscape="http://www.inkscape.org/namespaces/inkscape"
   xmlns:sodipodi="http://sodipodi.sourceforge.net/DTD/sodipodi-0.dtd"
   xmlns="http://www.w3.org/2000/svg"
   xmlns:svg="http://www.w3.org/2000/svg"
   xmlns:rdf="http://www.w3.org/1999/02/22-rdf-syntax-ns#"
   xmlns:cc="http://creativecommons.org/ns#"
   xmlns:dc="http://purl.org/dc/elements/1.1/"><sodipodi:namedview
     id="namedview1"
     pagecolor="#ffffff"
     bordercolor="#000000"
     borderopacity="0.25"
     inkscape:showpageshadow="2"
     inkscape:pageopacity="0.0"
     inkscape:pagecheckerboard="0"
     inkscape:deskcolor="#d1d1d1"
     inkscape:zoom="3.1961617"
     inkscape:cx="178.18247"
     inkscape:cy="26.750836"
     inkscape:window-width="2560"
     inkscape:window-height="1377"
     inkscape:window-x="-8"
     inkscape:window-y="-8"
     inkscape:window-maximized="1"
     inkscape:current-layer="g10" /><metadata
     id="metadata8"><rdf:RDF><cc:Work
         rdf:about=""><dc:format>image/svg+xml</dc:format><dc:type
           rdf:resource="http://purl.org/dc/dcmitype/StillImage" /></cc:Work></rdf:RDF></metadata><defs
     id="defs6"><clipPath
       id="clipPath22"
       clipPathUnits="userSpaceOnUse"><path
         id="path20"
         d="M 14.881,11.235 H 268.585 V 45.459 H 14.881 Z" /></clipPath></defs><g
     transform="matrix(1.3333333,0,0,-1.3333333,0,75.590533)"
     id="g10">
<g
   id="g16"
   style="stroke:#000000;stroke-opacity:1;fill:none;fill-opacity:1"><g
     clip-path="url(#clipPath22)"
     id="g18"
     style="stroke:#000000;stroke-opacity:1;fill:none;fill-opacity:1"><g
       transform="translate(28.256,34.6987)"
       id="g24"
       style="stroke:#000000;stroke-opacity:1;fill:none;fill-opacity:1"><path
         id="path26"
         style="fill:none;stroke:#000000;stroke-width:1.64699996;stroke-linecap:butt;stroke-linejoin:miter;stroke-miterlimit:10;stroke-dasharray:none;stroke-opacity:1;fill-opacity:1"
         d="M 0,0 C 0.552,-0.471 8.149,-7.154 6.589,-15.985 6.026,-19.177 4.462,-21.528 3.294,-22.939" /></g></g></g><g
   transform="translate(20.7621,45.459)"
   id="g28"
   style="stroke:none;stroke-opacity:1;fill:#000000;fill-opacity:1"><path
     id="path30"
     style="fill:#000000;fill-opacity:1;fill-rule:nonzero;stroke:none;stroke-opacity:1"
     d="m 0,0 -1.779,-4.184 1.565,-3.904 -3.888,-1.582 -1.779,-4.2 3.921,-1.664 4.018,1.68 1.565,-4.052 3.954,-1.68 1.778,4.201 -1.432,3.525 v 0.016 l -0.149,0.363 3.921,1.581 1.763,4.184 -3.954,1.68 -3.986,-1.68 -1.598,4.052 z m 0.806,-8.122 4.383,1.599 1.581,-4.398 -4.382,-1.582 z m 1.484,-0.691 0.807,-2.207 2.191,0.807 -0.808,2.19 z" /></g><text
   xml:space="preserve"
   style="font-size:16.2714px;text-align:start;writing-mode:lr-tb;direction:ltr;text-anchor:start;display:none;fill:#000000;fill-opacity:1;stroke:none;stroke-width:1.35595;stroke-opacity:1"
   x="47.173225"
   y="-21.870203"
   id="text2"
   transform="scale(1,-1)"><tspan
     sodipodi:role="line"
     id="tspan2"
     style="font-style:normal;font-variant:normal;font-weight:normal;font-stretch:normal;font-family:'Quad Black';-inkscape-font-specification:'Quad Black, ';fill:#000000;fill-opacity:1;stroke:none;stroke-width:1.35595;stroke-opacity:1"
     x="47.173225"
     y="-21.870203">extralife instruments</tspan></text><path
   style="font-size:16.2714px;font-family:'Quad Black';-inkscape-font-specification:'Quad Black, ';stroke-width:1.35595"
   d="m 46.922298,28.133766 2.343082,2.310539 h 6.768902 l 2.343082,-2.294267 v -2.375625 l -2.147825,-2.115282 2.212911,-2.21291 -2.424439,-2.391896 H 49.26538 l -2.326811,2.32681 z m 23.528446,-5.727532 v -3.351909 h -3.449537 l -2.261725,2.32681 -2.261725,-2.32681 h -3.449536 v 3.351909 l 2.359353,2.359353 -2.359353,2.375624 v 3.335637 h 3.449536 l 2.261725,-2.310539 2.261725,2.310539 h 3.449537 v -3.335637 l -2.359353,-2.375624 z m 5.922778,-3.351909 h -2.245454 l -2.44071,2.294267 v 11.341167 l 2.180368,2.180367 h 0.439328 l 2.164096,-2.196639 v -4.539721 l 2.310539,-2.277996 -2.196639,-2.21291 2.196639,-2.212911 z m 12.317458,8.981813 -2.424439,-2.424439 h -1.887482 v -4.377006 l -2.212911,-2.180368 h -0.455599 l -2.180368,2.180368 v 6.882802 l 2.326811,2.32681 h 4.409549 z m 11.47135,-6.671274 -2.343081,-2.310539 h -6.768902 l -2.343082,2.294267 v 2.375625 l 2.147825,2.115282 -2.212911,2.21291 2.424439,2.391896 h 6.752631 l 2.326811,-2.32681 z m 3.79125,-2.294268 h -0.4556 l -2.21291,2.212911 v 11.292352 l 2.42444,2.44071 2.45698,-2.44071 V 21.283507 Z m 6.08551,0 h -0.4556 l -2.21291,2.212911 v 6.720088 l 2.42444,2.44071 2.45698,-2.44071 v -6.720088 z m 10.16964,8.949271 -2.31054,-2.277996 v -4.490907 l -2.1641,-2.196639 h -0.43933 l -2.18037,2.180368 v 11.292352 l 2.44071,2.343081 h 2.24546 l 2.40817,-2.424438 -2.19664,-2.212911 z m 0.7973,0.113899 2.34309,2.310539 h 6.7689 l 2.34308,-2.294267 v -2.375625 l -2.14782,-2.115282 2.21291,-2.21291 -2.42444,-2.391896 h -6.75263 l -2.32681,2.32681 z m 20.12773,-9.06317 h -0.4556 l -2.21291,2.212911 v 6.720088 l 2.42444,2.44071 2.45698,-2.44071 v -6.720088 z m 3.23802,2.180368 v 6.866531 l 2.40817,2.32681 h 6.80144 l 2.32681,-2.32681 v -6.866531 l -2.19664,-2.196639 h -0.43932 l -2.19664,2.196639 v 4.344464 h -1.85494 v -4.344464 l -2.19664,-2.196639 h -0.4556 z m 24.19556,2.408167 v -2.277996 l -2.34308,-2.32681 h -6.83399 l -2.40817,2.408167 2.22918,2.229182 -2.14782,2.147825 v 2.261725 l 2.35935,2.343081 h 6.80145 l 2.44071,-2.408167 -2.24546,-2.245453 z m 5.77634,-4.604806 h -2.24545 l -2.44071,2.294267 v 11.341167 l 2.18036,2.180367 h 0.43933 l 2.1641,-2.196639 v -4.539721 l 2.31054,-2.277996 -2.19664,-2.21291 2.19664,-2.212911 z m 12.31746,8.981813 -2.42444,-2.424439 h -1.88748 v -4.377006 l -2.21291,-2.180368 h -0.4556 l -2.18037,2.180368 v 6.882802 l 2.32681,2.32681 h 4.40955 z m 11.92695,-6.655003 -2.35936,-2.32681 h -6.85026 l -2.32681,2.32681 v 6.866531 l 2.19664,2.196639 h 0.43933 l 2.19664,-2.196639 v -4.344464 h 1.85494 v 4.344464 l 2.19664,2.196639 h 0.4556 l 2.19664,-2.196639 z m 19.3304,6.720089 v -6.85026 l -2.19664,-2.196639 h -0.43933 l -2.19664,2.196639 v 4.360735 h -1.85494 v -4.360735 l -2.19664,-2.196639 h -0.43932 l -2.19664,2.196639 v 4.360735 h -1.8224 v -4.360735 l -2.19664,-2.196639 h -0.43933 l -2.19664,2.196639 v 6.85026 l 2.32681,2.343081 h 13.489 z m 1.15528,0.03254 2.34308,2.310539 h 6.7689 l 2.34308,-2.294267 v -2.375625 l -2.14782,-2.115282 2.21291,-2.21291 -2.42444,-2.391896 h -6.75263 l -2.32681,2.32681 z m 12.5778,-6.882802 v 6.866531 l 2.40817,2.32681 h 6.80145 l 2.32681,-2.32681 v -6.866531 l -2.19664,-2.196639 h -0.43933 l -2.19664,2.196639 v 4.344464 h -1.85494 v -4.344464 l -2.19664,-2.196639 h -0.4556 z m 17.36158,-2.196639 h -2.24545 l -2.44071,2.294267 v 11.341167 l 2.18037,2.180367 h 0.43932 l 2.1641,-2.196639 v -4.539721 l 2.31054,-2.277996 -2.19664,-2.21291 2.19664,-2.212911 z m 14.67681,4.604806 v -2.277996 l -2.34308,-2.32681 h -6.83399 l -2.40817,2.408167 2.22918,2.229182 -2.14782,2.147825 v 2.261725 l 2.35935,2.343081 h 6.80145 l 2.44071,-2.408167 -2.24546,-2.245453 z"
   id="text1"
   aria-label="extralife instruments" /></g></svg>
