%TF.GenerationSoftware,KiCad,Pcbnew,7.0.1*%
%TF.CreationDate,2023-10-25T20:50:29-07:00*%
%TF.ProjectId,daisy_ampsim_euro_pcb,64616973-795f-4616-9d70-73696d5f6575,rev?*%
%TF.SameCoordinates,Original*%
%TF.FileFunction,Copper,L1,Top*%
%TF.FilePolarity,Positive*%
%FSLAX46Y46*%
G04 Gerber Fmt 4.6, Leading zero omitted, Abs format (unit mm)*
G04 Created by KiCad (PCBNEW 7.0.1) date 2023-10-25 20:50:29*
%MOMM*%
%LPD*%
G01*
G04 APERTURE LIST*
%TA.AperFunction,ComponentPad*%
%ADD10C,2.400000*%
%TD*%
%TA.AperFunction,ComponentPad*%
%ADD11O,2.400000X2.400000*%
%TD*%
%TA.AperFunction,ComponentPad*%
%ADD12R,1.700000X1.700000*%
%TD*%
%TA.AperFunction,ComponentPad*%
%ADD13C,1.700000*%
%TD*%
%TA.AperFunction,ComponentPad*%
%ADD14R,1.800000X1.800000*%
%TD*%
%TA.AperFunction,ComponentPad*%
%ADD15C,1.800000*%
%TD*%
%TA.AperFunction,ComponentPad*%
%ADD16R,1.830000X1.930000*%
%TD*%
%TA.AperFunction,ComponentPad*%
%ADD17C,2.130000*%
%TD*%
%TA.AperFunction,ComponentPad*%
%ADD18C,3.240000*%
%TD*%
%TA.AperFunction,ComponentPad*%
%ADD19R,1.930000X1.830000*%
%TD*%
%TA.AperFunction,ComponentPad*%
%ADD20O,1.700000X1.700000*%
%TD*%
%TA.AperFunction,ViaPad*%
%ADD21C,0.800000*%
%TD*%
%TA.AperFunction,Conductor*%
%ADD22C,0.800000*%
%TD*%
%TA.AperFunction,Conductor*%
%ADD23C,0.500000*%
%TD*%
G04 APERTURE END LIST*
D10*
%TO.P,R1,1*%
%TO.N,A9*%
X87620000Y-63000000D03*
D11*
%TO.P,R1,2*%
%TO.N,Net-(D1-A)*%
X72380000Y-63000000D03*
%TD*%
D12*
%TO.P,SW2,1,1*%
%TO.N,D1*%
X97750000Y-54750000D03*
D13*
X91250000Y-54750000D03*
%TO.P,SW2,2,2*%
%TO.N,GND*%
X97750000Y-50250000D03*
X91250000Y-50250000D03*
%TD*%
D10*
%TO.P,R2,1*%
%TO.N,D3*%
X82750000Y-89000000D03*
D11*
%TO.P,R2,2*%
%TO.N,Net-(D2-A)*%
X97990000Y-89000000D03*
%TD*%
D14*
%TO.P,D7,1,K*%
%TO.N,GND*%
X102750000Y-123025000D03*
D15*
%TO.P,D7,2,A*%
%TO.N,Net-(D7-A)*%
X102750000Y-120485000D03*
%TD*%
D12*
%TO.P,SW1,1,1*%
%TO.N,A8*%
X62750000Y-50250000D03*
D13*
X69250000Y-50250000D03*
%TO.P,SW1,2,2*%
%TO.N,GND*%
X62750000Y-54750000D03*
X69250000Y-54750000D03*
%TD*%
D16*
%TO.P,J1,S*%
%TO.N,GND*%
X61600000Y-133000000D03*
D17*
%TO.P,J1,T*%
%TO.N,AUDIO_IN_LEFT*%
X73000000Y-133000000D03*
%TO.P,J1,TN*%
%TO.N,unconnected-(J1-PadTN)*%
X64700000Y-133000000D03*
%TD*%
D18*
%TO.P,RV3,*%
%TO.N,*%
X103700000Y-49225000D03*
X113300000Y-49225000D03*
D14*
%TO.P,RV3,1,1*%
%TO.N,GND*%
X106000000Y-56725000D03*
D15*
%TO.P,RV3,2,2*%
%TO.N,ADC_11*%
X108500000Y-56725000D03*
%TO.P,RV3,3,3*%
%TO.N,+3V3_OUT*%
X111000000Y-56725000D03*
%TD*%
D14*
%TO.P,D5,1,K*%
%TO.N,GND*%
X106975000Y-94000000D03*
D15*
%TO.P,D5,2,A*%
%TO.N,Net-(D5-A)*%
X109515000Y-94000000D03*
%TD*%
D10*
%TO.P,R7,1*%
%TO.N,B6*%
X62130000Y-98000000D03*
D11*
%TO.P,R7,2*%
%TO.N,Net-(D7-A)*%
X77370000Y-98000000D03*
%TD*%
D10*
%TO.P,R4,1*%
%TO.N,D5*%
X97990000Y-98000000D03*
D11*
%TO.P,R4,2*%
%TO.N,Net-(D4-A)*%
X82750000Y-98000000D03*
%TD*%
D18*
%TO.P,RV7,*%
%TO.N,*%
X47000000Y-105891666D03*
X56600000Y-105891666D03*
D14*
%TO.P,RV7,1,1*%
%TO.N,GND*%
X49300000Y-113391666D03*
D15*
%TO.P,RV7,2,2*%
%TO.N,CV_5*%
X51800000Y-113391666D03*
%TO.P,RV7,3,3*%
%TO.N,+5V_OUT*%
X54300000Y-113391666D03*
%TD*%
D16*
%TO.P,J6,S*%
%TO.N,GND*%
X98780000Y-144150000D03*
D17*
%TO.P,J6,T*%
%TO.N,AUDIO_OUT_RIGHT*%
X87380000Y-144150000D03*
%TO.P,J6,TN*%
%TO.N,unconnected-(J6-PadTN)*%
X95680000Y-144150000D03*
%TD*%
D18*
%TO.P,RV8,*%
%TO.N,*%
X75350000Y-105891666D03*
X84950000Y-105891666D03*
D14*
%TO.P,RV8,1,1*%
%TO.N,GND*%
X77650000Y-113391666D03*
D15*
%TO.P,RV8,2,2*%
%TO.N,CV_4*%
X80150000Y-113391666D03*
%TO.P,RV8,3,3*%
%TO.N,+5V_OUT*%
X82650000Y-113391666D03*
%TD*%
D14*
%TO.P,D4,1,K*%
%TO.N,GND*%
X114250000Y-62725000D03*
D15*
%TO.P,D4,2,A*%
%TO.N,Net-(D4-A)*%
X114250000Y-65265000D03*
%TD*%
D18*
%TO.P,RV11,*%
%TO.N,*%
X103700000Y-134225000D03*
X113300000Y-134225000D03*
D14*
%TO.P,RV11,1,1*%
%TO.N,GND*%
X106000000Y-141725000D03*
D15*
%TO.P,RV11,2,2*%
%TO.N,CV_8*%
X108500000Y-141725000D03*
%TO.P,RV11,3,3*%
%TO.N,+5V_OUT*%
X111000000Y-141725000D03*
%TD*%
D18*
%TO.P,RV2,*%
%TO.N,*%
X75350000Y-49225000D03*
X84950000Y-49225000D03*
D14*
%TO.P,RV2,1,1*%
%TO.N,GND*%
X77650000Y-56725000D03*
D15*
%TO.P,RV2,2,2*%
%TO.N,CV_2*%
X80150000Y-56725000D03*
%TO.P,RV2,3,3*%
%TO.N,+5V_OUT*%
X82650000Y-56725000D03*
%TD*%
D14*
%TO.P,D6,1,K*%
%TO.N,GND*%
X114250000Y-123025000D03*
D15*
%TO.P,D6,2,A*%
%TO.N,Net-(D6-A)*%
X114250000Y-120485000D03*
%TD*%
D18*
%TO.P,RV5,*%
%TO.N,*%
X75350000Y-77558333D03*
X84950000Y-77558333D03*
D14*
%TO.P,RV5,1,1*%
%TO.N,GND*%
X77650000Y-85058333D03*
D15*
%TO.P,RV5,2,2*%
%TO.N,CV_3*%
X80150000Y-85058333D03*
%TO.P,RV5,3,3*%
%TO.N,+5V_OUT*%
X82650000Y-85058333D03*
%TD*%
D14*
%TO.P,D1,1,K*%
%TO.N,GND*%
X64725000Y-46750000D03*
D15*
%TO.P,D1,2,A*%
%TO.N,Net-(D1-A)*%
X67265000Y-46750000D03*
%TD*%
D18*
%TO.P,RV10,*%
%TO.N,*%
X47000000Y-134225000D03*
X56600000Y-134225000D03*
D14*
%TO.P,RV10,1,1*%
%TO.N,GND*%
X49300000Y-141725000D03*
D15*
%TO.P,RV10,2,2*%
%TO.N,CV_6*%
X51800000Y-141725000D03*
%TO.P,RV10,3,3*%
%TO.N,+5V_OUT*%
X54300000Y-141725000D03*
%TD*%
D14*
%TO.P,D2,1,K*%
%TO.N,GND*%
X93225000Y-46750000D03*
D15*
%TO.P,D2,2,A*%
%TO.N,Net-(D2-A)*%
X95765000Y-46750000D03*
%TD*%
D18*
%TO.P,RV4,*%
%TO.N,*%
X47000000Y-77558333D03*
X56600000Y-77558333D03*
D14*
%TO.P,RV4,1,1*%
%TO.N,GND*%
X49300000Y-85058333D03*
D15*
%TO.P,RV4,2,2*%
%TO.N,A3*%
X51800000Y-85058333D03*
%TO.P,RV4,3,3*%
%TO.N,+3V3_OUT*%
X54300000Y-85058333D03*
%TD*%
D14*
%TO.P,D3,1,K*%
%TO.N,GND*%
X102750000Y-62725000D03*
D15*
%TO.P,D3,2,A*%
%TO.N,Net-(D3-A)*%
X102750000Y-65265000D03*
%TD*%
D16*
%TO.P,J2,S*%
%TO.N,GND*%
X61600000Y-144150000D03*
D17*
%TO.P,J2,T*%
%TO.N,AUDIO_IN_RIGHT*%
X73000000Y-144150000D03*
%TO.P,J2,TN*%
%TO.N,AUDIO_IN_LEFT*%
X64700000Y-144150000D03*
%TD*%
D10*
%TO.P,R3,1*%
%TO.N,D4*%
X97990000Y-93500000D03*
D11*
%TO.P,R3,2*%
%TO.N,Net-(D3-A)*%
X82750000Y-93500000D03*
%TD*%
D19*
%TO.P,J3,S*%
%TO.N,GND*%
X80150000Y-131464794D03*
D17*
%TO.P,J3,T*%
%TO.N,CV_1*%
X80150000Y-142864794D03*
%TO.P,J3,TN*%
%TO.N,unconnected-(J3-PadTN)*%
X80150000Y-134564794D03*
%TD*%
D18*
%TO.P,RV1,*%
%TO.N,*%
X47000000Y-49225000D03*
X56600000Y-49225000D03*
D14*
%TO.P,RV1,1,1*%
%TO.N,GND*%
X49300000Y-56725000D03*
D15*
%TO.P,RV1,2,2*%
%TO.N,A2*%
X51800000Y-56725000D03*
%TO.P,RV1,3,3*%
%TO.N,+3V3_OUT*%
X54300000Y-56725000D03*
%TD*%
D16*
%TO.P,J5,S*%
%TO.N,GND*%
X98780000Y-133000000D03*
D17*
%TO.P,J5,T*%
%TO.N,AUDIO_OUT_LEFT*%
X87380000Y-133000000D03*
%TO.P,J5,TN*%
%TO.N,unconnected-(J5-PadTN)*%
X95680000Y-133000000D03*
%TD*%
D18*
%TO.P,RV6,*%
%TO.N,*%
X103700000Y-77558333D03*
X113300000Y-77558333D03*
D14*
%TO.P,RV6,1,1*%
%TO.N,GND*%
X106000000Y-85058333D03*
D15*
%TO.P,RV6,2,2*%
%TO.N,ADC_12*%
X108500000Y-85058333D03*
%TO.P,RV6,3,3*%
%TO.N,+3V3_OUT*%
X111000000Y-85058333D03*
%TD*%
D12*
%TO.P,SW4,1,1*%
%TO.N,B10*%
X106250000Y-125250000D03*
D13*
X106250000Y-118750000D03*
%TO.P,SW4,2,2*%
%TO.N,GND*%
X110750000Y-125250000D03*
X110750000Y-118750000D03*
%TD*%
D10*
%TO.P,R6,1*%
%TO.N,B5*%
X62130000Y-93500000D03*
D11*
%TO.P,R6,2*%
%TO.N,Net-(D6-A)*%
X77370000Y-93500000D03*
%TD*%
D18*
%TO.P,RV9,*%
%TO.N,*%
X103700000Y-105891666D03*
X113300000Y-105891666D03*
D14*
%TO.P,RV9,1,1*%
%TO.N,GND*%
X106000000Y-113391666D03*
D15*
%TO.P,RV9,2,2*%
%TO.N,CV_7*%
X108500000Y-113391666D03*
%TO.P,RV9,3,3*%
%TO.N,+5V_OUT*%
X111000000Y-113391666D03*
%TD*%
D12*
%TO.P,SW3,1,1*%
%TO.N,D2*%
X106250000Y-67250000D03*
D13*
X106250000Y-60750000D03*
%TO.P,SW3,2,2*%
%TO.N,GND*%
X110750000Y-67250000D03*
X110750000Y-60750000D03*
%TD*%
D12*
%TO.P,SW5,1,1*%
%TO.N,B9*%
X76900000Y-146750000D03*
D13*
X83400000Y-146750000D03*
%TO.P,SW5,2,2*%
%TO.N,GND*%
X76900000Y-151250000D03*
X83400000Y-151250000D03*
%TD*%
D10*
%TO.P,R5,1*%
%TO.N,B8*%
X62130000Y-89000000D03*
D11*
%TO.P,R5,2*%
%TO.N,Net-(D5-A)*%
X77370000Y-89000000D03*
%TD*%
D12*
%TO.P,J_D1,1,Pin_1*%
%TO.N,D1*%
X92730000Y-61920000D03*
D20*
%TO.P,J_D1,2,Pin_2*%
%TO.N,D10*%
X95270000Y-61920000D03*
%TO.P,J_D1,3,Pin_3*%
%TO.N,D2*%
X92730000Y-64460000D03*
%TO.P,J_D1,4,Pin_4*%
%TO.N,ADC_11*%
X95270000Y-64460000D03*
%TO.P,J_D1,5,Pin_5*%
%TO.N,D3*%
X92730000Y-67000000D03*
%TO.P,J_D1,6,Pin_6*%
%TO.N,ADC_12*%
X95270000Y-67000000D03*
%TO.P,J_D1,7,Pin_7*%
%TO.N,D4*%
X92730000Y-69540000D03*
%TO.P,J_D1,8,Pin_8*%
%TO.N,D7*%
X95270000Y-69540000D03*
%TO.P,J_D1,9,Pin_9*%
%TO.N,D5*%
X92730000Y-72080000D03*
%TO.P,J_D1,10,Pin_10*%
%TO.N,D6*%
X95270000Y-72080000D03*
%TD*%
D12*
%TO.P,J_B1,1,Pin_1*%
%TO.N,AUDIO_OUT_RIGHT*%
X61920000Y-123270000D03*
D20*
%TO.P,J_B1,2,Pin_2*%
%TO.N,B10*%
X61920000Y-120730000D03*
%TO.P,J_B1,3,Pin_3*%
%TO.N,AUDIO_OUT_LEFT*%
X64460000Y-123270000D03*
%TO.P,J_B1,4,Pin_4*%
%TO.N,B9*%
X64460000Y-120730000D03*
%TO.P,J_B1,5,Pin_5*%
%TO.N,AUDIO_IN_RIGHT*%
X67000000Y-123270000D03*
%TO.P,J_B1,6,Pin_6*%
%TO.N,B8*%
X67000000Y-120730000D03*
%TO.P,J_B1,7,Pin_7*%
%TO.N,AUDIO_IN_LEFT*%
X69540000Y-123270000D03*
%TO.P,J_B1,8,Pin_8*%
%TO.N,B7*%
X69540000Y-120730000D03*
%TO.P,J_B1,9,Pin_9*%
%TO.N,B5*%
X72080000Y-123270000D03*
%TO.P,J_B1,10,Pin_10*%
%TO.N,B6*%
X72080000Y-120730000D03*
%TD*%
D12*
%TO.P,J4,1,+12V*%
%TO.N,+12V_IN*%
X55080000Y-66540000D03*
D20*
%TO.P,J4,2,+12V*%
X55080000Y-64000000D03*
%TO.P,J4,3,GND*%
%TO.N,GND*%
X52540000Y-66540000D03*
%TO.P,J4,4,GND*%
X52540000Y-64000000D03*
%TO.P,J4,5,GND*%
X50000000Y-66540000D03*
%TO.P,J4,6,GND*%
X50000000Y-64000000D03*
%TO.P,J4,7,GND*%
X47460000Y-66540000D03*
%TO.P,J4,8,GND*%
X47460000Y-64000000D03*
%TO.P,J4,9,-12V*%
%TO.N,-12V_IN*%
X44920000Y-66540000D03*
%TO.P,J4,10,-12V*%
X44920000Y-64000000D03*
%TD*%
D12*
%TO.P,J_A1,1,Pin_1*%
%TO.N,-12V_IN*%
X64730000Y-61920000D03*
D20*
%TO.P,J_A1,2,Pin_2*%
%TO.N,+3V3_OUT*%
X67270000Y-61920000D03*
%TO.P,J_A1,3,Pin_3*%
%TO.N,A2*%
X64730000Y-64460000D03*
%TO.P,J_A1,4,Pin_4*%
%TO.N,A9*%
X67270000Y-64460000D03*
%TO.P,J_A1,5,Pin_5*%
%TO.N,A3*%
X64730000Y-67000000D03*
%TO.P,J_A1,6,Pin_6*%
%TO.N,A8*%
X67270000Y-67000000D03*
%TO.P,J_A1,7,Pin_7*%
%TO.N,GND*%
X64730000Y-69540000D03*
%TO.P,J_A1,8,Pin_8*%
X67270000Y-69540000D03*
%TO.P,J_A1,9,Pin_9*%
%TO.N,+12V_IN*%
X64730000Y-72080000D03*
%TO.P,J_A1,10,Pin_10*%
%TO.N,+5V_OUT*%
X67270000Y-72080000D03*
%TD*%
D12*
%TO.P,J_C1,1,Pin_1*%
%TO.N,CV_OUT_2*%
X87920000Y-123270000D03*
D20*
%TO.P,J_C1,2,Pin_2*%
%TO.N,CV_OUT_1*%
X87920000Y-120730000D03*
%TO.P,J_C1,3,Pin_3*%
%TO.N,CV_4*%
X90460000Y-123270000D03*
%TO.P,J_C1,4,Pin_4*%
%TO.N,CV_8*%
X90460000Y-120730000D03*
%TO.P,J_C1,5,Pin_5*%
%TO.N,CV_3*%
X93000000Y-123270000D03*
%TO.P,J_C1,6,Pin_6*%
%TO.N,CV_7*%
X93000000Y-120730000D03*
%TO.P,J_C1,7,Pin_7*%
%TO.N,CV_2*%
X95540000Y-123270000D03*
%TO.P,J_C1,8,Pin_8*%
%TO.N,CV_6*%
X95540000Y-120730000D03*
%TO.P,J_C1,9,Pin_9*%
%TO.N,CV_1*%
X98080000Y-123270000D03*
%TO.P,J_C1,10,Pin_10*%
%TO.N,CV_5*%
X98080000Y-120730000D03*
%TD*%
D21*
%TO.N,A9*%
X71500000Y-66500000D03*
%TO.N,A3*%
X59000000Y-73500000D03*
%TO.N,B10*%
X75750000Y-118750000D03*
X88000000Y-127250000D03*
%TO.N,CV_8*%
X95500000Y-117500000D03*
%TO.N,CV_3*%
X78500000Y-91250000D03*
%TO.N,CV_2*%
X97000000Y-108500000D03*
%TO.N,D2*%
X89500000Y-72250000D03*
%TO.N,D4*%
X95000000Y-84000000D03*
%TO.N,Net-(D5-A)*%
X87000000Y-98250000D03*
X73574511Y-99133892D03*
%TO.N,Net-(D6-A)*%
X89750000Y-99500000D03*
%TO.N,Net-(D7-A)*%
X85000000Y-124500000D03*
%TO.N,ADC_12*%
X98500000Y-82000000D03*
%TO.N,D5*%
X96500000Y-83000000D03*
%TD*%
D22*
%TO.N,-12V_IN*%
X44840000Y-66540000D02*
X44840000Y-64000000D01*
X46920000Y-61920000D02*
X64730000Y-61920000D01*
X44840000Y-64000000D02*
X46920000Y-61920000D01*
%TO.N,+3V3_OUT*%
X118000000Y-78058334D02*
X116029167Y-80029167D01*
X113275000Y-56725000D02*
X111000000Y-56725000D01*
X116029167Y-80029167D02*
X111000000Y-85058333D01*
D23*
X44000000Y-61000000D02*
X42500000Y-62500000D01*
D22*
X116500000Y-53000000D02*
X116500000Y-53500000D01*
X67270000Y-61920000D02*
X67270000Y-60717919D01*
X116500000Y-45000000D02*
X116500000Y-53000000D01*
X116500000Y-53500000D02*
X113275000Y-56725000D01*
X63277081Y-56725000D02*
X54300000Y-56725000D01*
X101500000Y-44500000D02*
X116000000Y-44500000D01*
X118000000Y-54500000D02*
X118000000Y-78058334D01*
D23*
X54300000Y-56725000D02*
X50025000Y-61000000D01*
X62075000Y-56725000D02*
X54300000Y-56725000D01*
D22*
X116000000Y-44500000D02*
X116500000Y-45000000D01*
X91500000Y-48500000D02*
X97500000Y-48500000D01*
X63277081Y-56725000D02*
X61225000Y-56725000D01*
X61225000Y-56725000D02*
X60000000Y-55500000D01*
D23*
X42500000Y-62500000D02*
X42500000Y-83000000D01*
D22*
X67270000Y-60717919D02*
X63277081Y-56725000D01*
X60000000Y-55500000D02*
X60000000Y-47500000D01*
D23*
X51858333Y-87500000D02*
X54300000Y-85058333D01*
X42500000Y-83000000D02*
X47000000Y-87500000D01*
D22*
X63000000Y-44500000D02*
X87500000Y-44500000D01*
D23*
X50025000Y-61000000D02*
X44000000Y-61000000D01*
D22*
X116500000Y-53000000D02*
X118000000Y-54500000D01*
X97500000Y-48500000D02*
X101500000Y-44500000D01*
X60000000Y-47500000D02*
X63000000Y-44500000D01*
X87500000Y-44500000D02*
X91500000Y-48500000D01*
D23*
X47000000Y-87500000D02*
X51858333Y-87500000D01*
%TO.N,A9*%
X76000000Y-54500000D02*
X85500000Y-54500000D01*
X75000000Y-63000000D02*
X75000000Y-55500000D01*
X85500000Y-54500000D02*
X87620000Y-56620000D01*
X75000000Y-55500000D02*
X76000000Y-54500000D01*
X71500000Y-66500000D02*
X75000000Y-63000000D01*
X87620000Y-56620000D02*
X87620000Y-63000000D01*
%TO.N,A3*%
X59000000Y-73500000D02*
X59000000Y-82750000D01*
X51800000Y-85058333D02*
X53554166Y-83304166D01*
X59000000Y-82750000D02*
X58445834Y-83304166D01*
X58445834Y-83304166D02*
X53554166Y-83304166D01*
%TO.N,A8*%
X70730000Y-51730000D02*
X70730000Y-63540000D01*
X69250000Y-50250000D02*
X70730000Y-51730000D01*
X62750000Y-50250000D02*
X69250000Y-50250000D01*
X70730000Y-63540000D02*
X67270000Y-67000000D01*
D22*
%TO.N,+12V_IN*%
X60540000Y-72080000D02*
X55000000Y-66540000D01*
X60540000Y-72080000D02*
X64730000Y-72080000D01*
X55000000Y-64000000D02*
X55000000Y-66540000D01*
%TO.N,+5V_OUT*%
X80500000Y-100750000D02*
X79650499Y-99900499D01*
X79650499Y-99900499D02*
X79650499Y-88057834D01*
X43000000Y-100500000D02*
X67270000Y-76230000D01*
X111000000Y-113391666D02*
X107258833Y-109650499D01*
X107258833Y-109650499D02*
X96500000Y-109650499D01*
X109250000Y-127750000D02*
X114250000Y-127750000D01*
X117000000Y-139500000D02*
X114775000Y-141725000D01*
X111000000Y-113391666D02*
X111000000Y-115000000D01*
X73420000Y-72080000D02*
X72500000Y-72080000D01*
X79650499Y-88057834D02*
X80000000Y-87708333D01*
X67270000Y-76230000D02*
X67270000Y-72080000D01*
X108500000Y-127000000D02*
X109250000Y-127750000D01*
X89000000Y-107391666D02*
X89000000Y-111000000D01*
X82650000Y-56725000D02*
X82650000Y-62850000D01*
X72500000Y-72080000D02*
X67270000Y-72080000D01*
X47000000Y-145500000D02*
X43000000Y-141500000D01*
X52000000Y-145500000D02*
X47000000Y-145500000D01*
X82650000Y-62850000D02*
X73420000Y-72080000D01*
X67270000Y-72080000D02*
X67270000Y-77845585D01*
X86608334Y-113391666D02*
X83000000Y-113391666D01*
X79291667Y-87000000D02*
X80000000Y-87708333D01*
X117000000Y-130500000D02*
X117000000Y-139500000D01*
X114250000Y-127750000D02*
X117000000Y-130500000D01*
X86250000Y-100750000D02*
X80500000Y-100750000D01*
X54500000Y-143000000D02*
X52000000Y-145500000D01*
X54300000Y-113391666D02*
X43000000Y-124691666D01*
X82650000Y-85058333D02*
X80000000Y-87708333D01*
X114775000Y-141725000D02*
X111000000Y-141725000D01*
X95150499Y-109650499D02*
X88375000Y-102875000D01*
X88375000Y-102875000D02*
X86250000Y-100750000D01*
X89000000Y-103500000D02*
X89000000Y-107391666D01*
X89000000Y-111000000D02*
X86608334Y-113391666D01*
X108500000Y-117500000D02*
X108500000Y-127000000D01*
X54500000Y-141725000D02*
X54500000Y-143000000D01*
X43000000Y-141500000D02*
X43000000Y-125500000D01*
X111000000Y-115000000D02*
X108500000Y-117500000D01*
X88375000Y-102875000D02*
X89000000Y-103500000D01*
X43000000Y-125500000D02*
X43000000Y-124000000D01*
X43000000Y-124000000D02*
X43000000Y-100500000D01*
X96500000Y-109650499D02*
X95150499Y-109650499D01*
X67270000Y-77845585D02*
X76424415Y-87000000D01*
X76424415Y-87000000D02*
X79291667Y-87000000D01*
D23*
%TO.N,AUDIO_OUT_RIGHT*%
X60000000Y-136390756D02*
X59050499Y-137340257D01*
X60000000Y-127000000D02*
X61920000Y-125080000D01*
X60000000Y-127000000D02*
X60000000Y-136390756D01*
X88144165Y-143348813D02*
X86044475Y-145448503D01*
X59050499Y-145369743D02*
X61031754Y-147350998D01*
X86044475Y-145448503D02*
X75652495Y-145448503D01*
X61920000Y-125080000D02*
X61920000Y-123270000D01*
X59050499Y-137340257D02*
X59050499Y-145369743D01*
X61031754Y-147350998D02*
X73750000Y-147350998D01*
X75652495Y-145448503D02*
X73750000Y-147350998D01*
%TO.N,B10*%
X84250000Y-127250000D02*
X75750000Y-118750000D01*
X84250000Y-127250000D02*
X88000000Y-127250000D01*
X106250000Y-125250000D02*
X106250000Y-118750000D01*
%TO.N,AUDIO_OUT_LEFT*%
X88144165Y-133000000D02*
X88144165Y-137363163D01*
X63185000Y-135815000D02*
X63185000Y-127250000D01*
X72848503Y-146651497D02*
X61321497Y-146651497D01*
X64460000Y-125040000D02*
X64460000Y-123270000D01*
X61321497Y-146651497D02*
X59750000Y-145080000D01*
X63185000Y-126315000D02*
X64460000Y-125040000D01*
X59750000Y-137630000D02*
X60880000Y-136500000D01*
X80758326Y-144749002D02*
X74750998Y-144749002D01*
X60880000Y-136500000D02*
X62500000Y-136500000D01*
X63185000Y-127250000D02*
X63185000Y-126315000D01*
X74750998Y-144749002D02*
X72848503Y-146651497D01*
X88144165Y-137363163D02*
X80758326Y-144749002D01*
X62500000Y-136500000D02*
X63185000Y-135815000D01*
X59750000Y-145080000D02*
X59750000Y-137630000D01*
%TO.N,B9*%
X75949501Y-148050499D02*
X77250000Y-146750000D01*
X83750000Y-146750000D02*
X77250000Y-146750000D01*
X59300499Y-120000000D02*
X60550499Y-118750000D01*
X58350998Y-137050514D02*
X58350998Y-145659486D01*
X62480000Y-118750000D02*
X64460000Y-120730000D01*
X59300499Y-120000000D02*
X59300499Y-136101013D01*
X58350998Y-145659486D02*
X60742011Y-148050499D01*
X60742011Y-148050499D02*
X75949501Y-148050499D01*
X59300499Y-136101013D02*
X58350998Y-137050514D01*
X60550499Y-118750000D02*
X62480000Y-118750000D01*
%TO.N,AUDIO_IN_RIGHT*%
X71000000Y-134000000D02*
X71000000Y-127964244D01*
X63185000Y-144777534D02*
X63185000Y-141815000D01*
X64359462Y-145951996D02*
X63185000Y-144777534D01*
X71198004Y-145951996D02*
X64359462Y-145951996D01*
X63185000Y-141815000D02*
X71000000Y-134000000D01*
X71000000Y-127964244D02*
X67000000Y-123964244D01*
X73000000Y-144150000D02*
X71198004Y-145951996D01*
%TO.N,B8*%
X60230000Y-90900000D02*
X62130000Y-89000000D01*
X60230000Y-111420000D02*
X67000000Y-118190000D01*
X60230000Y-92500000D02*
X60230000Y-90900000D01*
X60230000Y-92500000D02*
X60230000Y-111420000D01*
X67000000Y-118190000D02*
X67000000Y-120730000D01*
%TO.N,AUDIO_IN_LEFT*%
X69540000Y-125515000D02*
X73000000Y-128975000D01*
X73000000Y-128975000D02*
X73000000Y-133000000D01*
D22*
X73000000Y-135850000D02*
X64700000Y-144150000D01*
D23*
X69540000Y-125515000D02*
X69540000Y-123270000D01*
D22*
X73000000Y-133000000D02*
X73000000Y-135850000D01*
D23*
%TO.N,B5*%
X74250000Y-117500000D02*
X74250000Y-122500000D01*
X73480000Y-123270000D02*
X72080000Y-123270000D01*
X74250000Y-122500000D02*
X73480000Y-123270000D01*
X70750000Y-114000000D02*
X74250000Y-117500000D01*
X70750000Y-97510756D02*
X70750000Y-114000000D01*
X66739244Y-93500000D02*
X70750000Y-97510756D01*
X62130000Y-93500000D02*
X66739244Y-93500000D01*
%TO.N,B6*%
X69750000Y-118400000D02*
X72080000Y-120730000D01*
X69750000Y-105620000D02*
X69750000Y-118400000D01*
X62130000Y-98000000D02*
X69750000Y-105620000D01*
%TO.N,CV_4*%
X80150000Y-118220500D02*
X87109001Y-125179501D01*
X90429501Y-124500000D02*
X90460000Y-124500000D01*
X80150000Y-113391666D02*
X80150000Y-118220500D01*
X87109001Y-125179501D02*
X89750000Y-125179501D01*
X90460000Y-124500000D02*
X90460000Y-123270000D01*
X89750000Y-125179501D02*
X90429501Y-124500000D01*
%TO.N,CV_8*%
X101250000Y-139675000D02*
X104825000Y-143250000D01*
X99500000Y-117500000D02*
X101250000Y-119250000D01*
X104825000Y-143250000D02*
X106975000Y-143250000D01*
X95500000Y-117500000D02*
X99500000Y-117500000D01*
X106975000Y-143250000D02*
X108500000Y-141725000D01*
X101250000Y-119250000D02*
X101250000Y-139675000D01*
%TO.N,CV_3*%
X92740756Y-123270000D02*
X89960257Y-126050499D01*
X89960257Y-126050499D02*
X85311255Y-126050499D01*
X76250000Y-91250000D02*
X78500000Y-91250000D01*
X75250000Y-92250000D02*
X76250000Y-91250000D01*
X72430499Y-113169743D02*
X72430499Y-103080257D01*
X93000000Y-123270000D02*
X92740756Y-123270000D01*
X75250000Y-100260756D02*
X75250000Y-92250000D01*
X85311255Y-126050499D02*
X72430499Y-113169743D01*
X72430499Y-103080257D02*
X75250000Y-100260756D01*
%TO.N,CV_7*%
X108500000Y-113391666D02*
X105546666Y-116345000D01*
X93000000Y-118190000D02*
X93000000Y-120730000D01*
X94845000Y-116345000D02*
X93000000Y-118190000D01*
X105546666Y-116345000D02*
X94845000Y-116345000D01*
%TO.N,CV_2*%
X80500000Y-88500000D02*
X80500000Y-98500000D01*
X82000000Y-87000000D02*
X80500000Y-88500000D01*
X80150000Y-56725000D02*
X81500000Y-55375000D01*
X88250000Y-99750000D02*
X97000000Y-108500000D01*
X83875000Y-55375000D02*
X85000000Y-56500000D01*
X87020000Y-71020000D02*
X87020000Y-82980000D01*
X83000000Y-87000000D02*
X82000000Y-87000000D01*
X85000000Y-69000000D02*
X87020000Y-71020000D01*
X81500000Y-55375000D02*
X83875000Y-55375000D01*
X87020000Y-82980000D02*
X83000000Y-87000000D01*
X80500000Y-98500000D02*
X81750000Y-99750000D01*
X85000000Y-56500000D02*
X85000000Y-69000000D01*
X81750000Y-99750000D02*
X88250000Y-99750000D01*
%TO.N,CV_6*%
X57960257Y-149699501D02*
X56550499Y-148289743D01*
X100550499Y-119789743D02*
X100550499Y-148649002D01*
X55850000Y-141100000D02*
X55125000Y-140375000D01*
X95540000Y-120730000D02*
X97400378Y-118869622D01*
X56550499Y-148289743D02*
X56550499Y-148039743D01*
X55850000Y-147339244D02*
X55850000Y-141100000D01*
X56550499Y-148039743D02*
X55850000Y-147339244D01*
X53350000Y-140375000D02*
X52000000Y-141725000D01*
X99500000Y-149699501D02*
X57960257Y-149699501D01*
X99630378Y-118869622D02*
X100550499Y-119789743D01*
X97400378Y-118869622D02*
X99630378Y-118869622D01*
X55125000Y-140375000D02*
X53350000Y-140375000D01*
X100550499Y-148649002D02*
X99500000Y-149699501D01*
%TO.N,CV_1*%
X80500000Y-140420083D02*
X80500000Y-142864794D01*
X91250000Y-125750000D02*
X84500000Y-132500000D01*
X84500000Y-132500000D02*
X84500000Y-136420083D01*
X95600000Y-125750000D02*
X98080000Y-123270000D01*
X91250000Y-125750000D02*
X95600000Y-125750000D01*
X84500000Y-136420083D02*
X80500000Y-140420083D01*
%TO.N,CV_5*%
X58250499Y-148750499D02*
X88499501Y-148750499D01*
X44500000Y-137100998D02*
X47074501Y-139675499D01*
X44500000Y-127750000D02*
X44500000Y-137100998D01*
X51800000Y-113391666D02*
X53941666Y-111250000D01*
X93750000Y-126500000D02*
X97680484Y-126500000D01*
X97680484Y-126500000D02*
X99850998Y-124329486D01*
X53941666Y-111250000D02*
X57750000Y-111250000D01*
X88499501Y-148750499D02*
X90324239Y-146925761D01*
X90324239Y-146925761D02*
X90324239Y-129925761D01*
X58500000Y-112000000D02*
X58500000Y-113750000D01*
X99850998Y-124329486D02*
X99850998Y-122500998D01*
X56549501Y-147049501D02*
X58250499Y-148750499D01*
X58500000Y-113750000D02*
X44500000Y-127750000D01*
X99850998Y-122500998D02*
X98080000Y-120730000D01*
X90324239Y-129925761D02*
X93750000Y-126500000D01*
X55425499Y-139675499D02*
X56549501Y-140799501D01*
X47074501Y-139675499D02*
X55425499Y-139675499D01*
X56549501Y-140799501D02*
X56549501Y-147049501D01*
X57750000Y-111250000D02*
X58500000Y-112000000D01*
%TO.N,D1*%
X91920000Y-61920000D02*
X92730000Y-61920000D01*
X91250000Y-61250000D02*
X91920000Y-61920000D01*
X91250000Y-54750000D02*
X91250000Y-61250000D01*
X91250000Y-54750000D02*
X97750000Y-54750000D01*
%TO.N,D2*%
X106250000Y-68000000D02*
X106250000Y-61500000D01*
X97500000Y-63025000D02*
X99775000Y-60750000D01*
X99775000Y-60750000D02*
X105500000Y-60750000D01*
X89500000Y-72250000D02*
X92000000Y-74750000D01*
X92000000Y-74750000D02*
X96000000Y-74750000D01*
X105500000Y-60750000D02*
X106250000Y-61500000D01*
X97500000Y-73250000D02*
X97500000Y-63025000D01*
X96000000Y-74750000D02*
X97500000Y-73250000D01*
%TO.N,Net-(D1-A)*%
X71250000Y-46750000D02*
X67265000Y-46750000D01*
X72380000Y-63000000D02*
X72380000Y-47880000D01*
X72380000Y-47880000D02*
X71250000Y-46750000D01*
%TO.N,Net-(D2-A)*%
X99015000Y-43500000D02*
X95765000Y-46750000D01*
X97990000Y-89000000D02*
X109000000Y-89000000D01*
X119000000Y-45000000D02*
X117500000Y-43500000D01*
X117500000Y-43500000D02*
X100500000Y-43500000D01*
X100500000Y-43500000D02*
X99015000Y-43500000D01*
X109000000Y-89000000D02*
X119000000Y-79000000D01*
X119000000Y-79000000D02*
X119000000Y-45000000D01*
%TO.N,D4*%
X97990000Y-93500000D02*
X95000000Y-90510000D01*
X95000000Y-90510000D02*
X95000000Y-84000000D01*
%TO.N,Net-(D3-A)*%
X82750000Y-93500000D02*
X100500000Y-75750000D01*
X100500000Y-75750000D02*
X100500000Y-69000000D01*
X100500000Y-69000000D02*
X102750000Y-66750000D01*
X102750000Y-66750000D02*
X102750000Y-65265000D01*
%TO.N,Net-(D4-A)*%
X103000000Y-73000000D02*
X103000000Y-71500000D01*
X103000000Y-74239950D02*
X86500000Y-90739950D01*
X111500000Y-69750000D02*
X104750000Y-69750000D01*
X111500000Y-69750000D02*
X114250000Y-67000000D01*
X103000000Y-71500000D02*
X104750000Y-69750000D01*
X114250000Y-67000000D02*
X114250000Y-65790000D01*
X86500000Y-94250000D02*
X82750000Y-98000000D01*
X86500000Y-90739950D02*
X86500000Y-94250000D01*
X103000000Y-73000000D02*
X103000000Y-74239950D01*
%TO.N,Net-(D5-A)*%
X109515000Y-94000000D02*
X103865000Y-99650000D01*
X75672944Y-89000000D02*
X73574511Y-91098433D01*
X95150000Y-99650000D02*
X93750000Y-98250000D01*
X103865000Y-99650000D02*
X95150000Y-99650000D01*
X93750000Y-98250000D02*
X87000000Y-98250000D01*
X77370000Y-89000000D02*
X75672944Y-89000000D01*
X73574511Y-91098433D02*
X73574511Y-99133892D01*
%TO.N,Net-(D6-A)*%
X113099501Y-100349501D02*
X117000000Y-104250000D01*
X117000000Y-115500000D02*
X114250000Y-118250000D01*
X90599501Y-100349501D02*
X113099501Y-100349501D01*
X89750000Y-99500000D02*
X90125000Y-99875000D01*
X114250000Y-118250000D02*
X114250000Y-120735000D01*
X117000000Y-104250000D02*
X117000000Y-115500000D01*
X90125000Y-99875000D02*
X90599501Y-100349501D01*
%TO.N,Net-(D7-A)*%
X77370000Y-99130000D02*
X73130000Y-103370000D01*
X77370000Y-98000000D02*
X77370000Y-99130000D01*
X73130000Y-103370000D02*
X73130000Y-112630000D01*
X73130000Y-112630000D02*
X85000000Y-124500000D01*
%TO.N,ADC_11*%
X108500000Y-58250000D02*
X107500000Y-59250000D01*
X107500000Y-59250000D02*
X100285756Y-59250000D01*
X95270000Y-64265756D02*
X95270000Y-64460000D01*
X100285756Y-59250000D02*
X95270000Y-64265756D01*
X108500000Y-56725000D02*
X108500000Y-58250000D01*
%TO.N,ADC_12*%
X108500000Y-86500000D02*
X108500000Y-85058333D01*
X101250000Y-86250000D02*
X102500000Y-87500000D01*
X101250000Y-86250000D02*
X98500000Y-83500000D01*
X107500000Y-87500000D02*
X108500000Y-86500000D01*
X98500000Y-83500000D02*
X98500000Y-82000000D01*
X102500000Y-87500000D02*
X107500000Y-87500000D01*
%TO.N,D5*%
X98156547Y-91500000D02*
X96000000Y-89343453D01*
X97990000Y-98000000D02*
X99640000Y-96350000D01*
X99640000Y-96350000D02*
X99640000Y-91500000D01*
X99640000Y-91500000D02*
X98156547Y-91500000D01*
X96000000Y-89343453D02*
X96000000Y-83500000D01*
X96000000Y-83500000D02*
X96500000Y-83000000D01*
D22*
%TO.N,GND*%
X52460000Y-64000000D02*
X52460000Y-66540000D01*
X64730000Y-69540000D02*
X67270000Y-69540000D01*
X49920000Y-66540000D02*
X49920000Y-64000000D01*
X47380000Y-64000000D02*
X47380000Y-66540000D01*
D23*
%TO.N,D3*%
X88500000Y-71230000D02*
X88500000Y-83250000D01*
X88500000Y-83250000D02*
X82750000Y-89000000D01*
X92730000Y-67000000D02*
X88500000Y-71230000D01*
%TD*%
M02*
