M48
; DRILL file {KiCad 7.0.1} date Wed Oct 25 20:50:32 2023
; FORMAT={2:4/ absolute / inch / suppress trailing zeros}
; #@! TF.CreationDate,2023-10-25T20:50:32-07:00
; #@! TF.GenerationSoftware,Kicad,Pcbnew,7.0.1
; #@! TF.FileFunction,Plated,1,2,PTH
FMAT,2
INCH,LZ
; #@! TA.AperFunction,Plated,PTH,ViaDrill
T1C0.0157
; #@! TA.AperFunction,Plated,PTH,ComponentDrill
T2C0.0354
; #@! TA.AperFunction,Plated,PTH,ComponentDrill
T3C0.0394
; #@! TA.AperFunction,Plated,PTH,ComponentDrill
T4C0.0472
; #@! TA.AperFunction,Plated,PTH,ComponentDrill
T5C0.0480
; #@! TA.AperFunction,Plated,PTH,ComponentDrill
T6C0.0559
; #@! TA.AperFunction,Plated,PTH,ComponentDrill
T7C0.0563
; #@! TA.AperFunction,Plated,PTH,ComponentDrill
T8C0.0709
%
G90
G05
T1
X023228Y-028937
X02815Y-026181
X028966Y-039029
X029823Y-046752
X030906Y-035925
X033465Y-049016
X034252Y-038681
X034646Y-050098
X035236Y-028445
X035335Y-039173
X037402Y-033071
X037598Y-04626
X037992Y-032677
X038189Y-042717
X03878Y-032283
T2
X025482Y-018406
X026482Y-018406
X036703Y-018406
X037703Y-018406
X040453Y-024695
X040453Y-025695
X040453Y-047435
X040453Y-048435
X042116Y-037008
X043116Y-037008
X04498Y-024695
X04498Y-025695
X04498Y-047435
X04498Y-048435
T3
X017685Y-025197
X017685Y-026197
X018685Y-025197
X018685Y-026197
X019409Y-022333
X019409Y-033488
X019409Y-044642
X019409Y-055797
X019685Y-025197
X019685Y-026197
X020394Y-022333
X020394Y-033488
X020394Y-044642
X020394Y-055797
X020685Y-025197
X020685Y-026197
X021378Y-022333
X021378Y-033488
X021378Y-044642
X021378Y-055797
X021685Y-025197
X021685Y-026197
X024378Y-047531
X024378Y-048531
X024705Y-019783
X024705Y-021555
X025378Y-047531
X025378Y-048531
X025484Y-024378
X025484Y-025378
X025484Y-026378
X025484Y-027378
X025484Y-028378
X026378Y-047531
X026378Y-048531
X026484Y-024378
X026484Y-025378
X026484Y-026378
X026484Y-027378
X026484Y-028378
X027264Y-019783
X027264Y-021555
X027378Y-047531
X027378Y-048531
X028378Y-047531
X028378Y-048531
X030276Y-057776
X030276Y-059547
X030571Y-022333
X030571Y-033488
X030571Y-044642
X031555Y-022333
X031555Y-033488
X031555Y-044642
X032539Y-022333
X032539Y-033488
X032539Y-044642
X032835Y-057776
X032835Y-059547
X034614Y-047531
X034614Y-048531
X035614Y-047531
X035614Y-048531
X035925Y-019783
X035925Y-021555
X036508Y-024378
X036508Y-025378
X036508Y-026378
X036508Y-027378
X036508Y-028378
X036614Y-047531
X036614Y-048531
X037508Y-024378
X037508Y-025378
X037508Y-026378
X037508Y-027378
X037508Y-028378
X037614Y-047531
X037614Y-048531
X038484Y-019783
X038484Y-021555
X038614Y-047531
X038614Y-048531
X041732Y-022333
X041732Y-033488
X041732Y-044642
X041732Y-055797
X041831Y-023917
X041831Y-026476
X041831Y-046752
X041831Y-049311
X042717Y-022333
X042717Y-033488
X042717Y-044642
X042717Y-055797
X043602Y-023917
X043602Y-026476
X043602Y-046752
X043602Y-049311
X043701Y-022333
X043701Y-033488
X043701Y-044642
X043701Y-055797
T4
X024461Y-035039
X024461Y-036811
X024461Y-038583
X028496Y-024803
X030461Y-035039
X030461Y-036811
X030461Y-038583
X032579Y-035039
X032579Y-036811
X032579Y-038583
X034496Y-024803
X038579Y-035039
X038579Y-036811
X038579Y-038583
T5
X024252Y-052362
X024252Y-056752
X031555Y-051758
X03889Y-052362
X03889Y-056752
T6
X025472Y-052362
X025472Y-056752
X031555Y-052978
X037669Y-052362
X037669Y-056752
T7
X02874Y-052362
X02874Y-056752
X031555Y-056246
X034402Y-052362
X034402Y-056752
T8
X018504Y-01938
X018504Y-030535
X018504Y-04169
X018504Y-052844
X022283Y-01938
X022283Y-030535
X022283Y-04169
X022283Y-052844
X029665Y-01938
X029665Y-030535
X029665Y-04169
X033445Y-01938
X033445Y-030535
X033445Y-04169
X040827Y-01938
X040827Y-030535
X040827Y-04169
X040827Y-052844
X044606Y-01938
X044606Y-030535
X044606Y-04169
X044606Y-052844
T0
M30
