%TF.GenerationSoftware,KiCad,Pcbnew,7.0.1*%
%TF.CreationDate,2023-10-25T20:50:29-07:00*%
%TF.ProjectId,daisy_ampsim_euro_pcb,64616973-795f-4616-9d70-73696d5f6575,rev?*%
%TF.SameCoordinates,Original*%
%TF.FileFunction,Legend,Top*%
%TF.FilePolarity,Positive*%
%FSLAX46Y46*%
G04 Gerber Fmt 4.6, Leading zero omitted, Abs format (unit mm)*
G04 Created by KiCad (PCBNEW 7.0.1) date 2023-10-25 20:50:29*
%MOMM*%
%LPD*%
G01*
G04 APERTURE LIST*
%ADD10C,0.150000*%
%ADD11C,0.120000*%
G04 APERTURE END LIST*
D10*
X42238095Y-151353809D02*
X42571428Y-151353809D01*
X42714285Y-151877619D02*
X42238095Y-151877619D01*
X42238095Y-151877619D02*
X42238095Y-150877619D01*
X42238095Y-150877619D02*
X42714285Y-150877619D01*
X43047619Y-150877619D02*
X43714285Y-151877619D01*
X43714285Y-150877619D02*
X43047619Y-151877619D01*
X43952381Y-150877619D02*
X44523809Y-150877619D01*
X44238095Y-151877619D02*
X44238095Y-150877619D01*
X45428571Y-151877619D02*
X45095238Y-151401428D01*
X44857143Y-151877619D02*
X44857143Y-150877619D01*
X44857143Y-150877619D02*
X45238095Y-150877619D01*
X45238095Y-150877619D02*
X45333333Y-150925238D01*
X45333333Y-150925238D02*
X45380952Y-150972857D01*
X45380952Y-150972857D02*
X45428571Y-151068095D01*
X45428571Y-151068095D02*
X45428571Y-151210952D01*
X45428571Y-151210952D02*
X45380952Y-151306190D01*
X45380952Y-151306190D02*
X45333333Y-151353809D01*
X45333333Y-151353809D02*
X45238095Y-151401428D01*
X45238095Y-151401428D02*
X44857143Y-151401428D01*
X45809524Y-151591904D02*
X46285714Y-151591904D01*
X45714286Y-151877619D02*
X46047619Y-150877619D01*
X46047619Y-150877619D02*
X46380952Y-151877619D01*
X47190476Y-151877619D02*
X46714286Y-151877619D01*
X46714286Y-151877619D02*
X46714286Y-150877619D01*
X47523810Y-151877619D02*
X47523810Y-150877619D01*
X48333333Y-151353809D02*
X48000000Y-151353809D01*
X48000000Y-151877619D02*
X48000000Y-150877619D01*
X48000000Y-150877619D02*
X48476190Y-150877619D01*
X48857143Y-151353809D02*
X49190476Y-151353809D01*
X49333333Y-151877619D02*
X48857143Y-151877619D01*
X48857143Y-151877619D02*
X48857143Y-150877619D01*
X48857143Y-150877619D02*
X49333333Y-150877619D01*
X50523810Y-151877619D02*
X50523810Y-150877619D01*
X51000000Y-151877619D02*
X51000000Y-150877619D01*
X51000000Y-150877619D02*
X51571428Y-151877619D01*
X51571428Y-151877619D02*
X51571428Y-150877619D01*
X52000000Y-151830000D02*
X52142857Y-151877619D01*
X52142857Y-151877619D02*
X52380952Y-151877619D01*
X52380952Y-151877619D02*
X52476190Y-151830000D01*
X52476190Y-151830000D02*
X52523809Y-151782380D01*
X52523809Y-151782380D02*
X52571428Y-151687142D01*
X52571428Y-151687142D02*
X52571428Y-151591904D01*
X52571428Y-151591904D02*
X52523809Y-151496666D01*
X52523809Y-151496666D02*
X52476190Y-151449047D01*
X52476190Y-151449047D02*
X52380952Y-151401428D01*
X52380952Y-151401428D02*
X52190476Y-151353809D01*
X52190476Y-151353809D02*
X52095238Y-151306190D01*
X52095238Y-151306190D02*
X52047619Y-151258571D01*
X52047619Y-151258571D02*
X52000000Y-151163333D01*
X52000000Y-151163333D02*
X52000000Y-151068095D01*
X52000000Y-151068095D02*
X52047619Y-150972857D01*
X52047619Y-150972857D02*
X52095238Y-150925238D01*
X52095238Y-150925238D02*
X52190476Y-150877619D01*
X52190476Y-150877619D02*
X52428571Y-150877619D01*
X52428571Y-150877619D02*
X52571428Y-150925238D01*
X52857143Y-150877619D02*
X53428571Y-150877619D01*
X53142857Y-151877619D02*
X53142857Y-150877619D01*
X54333333Y-151877619D02*
X54000000Y-151401428D01*
X53761905Y-151877619D02*
X53761905Y-150877619D01*
X53761905Y-150877619D02*
X54142857Y-150877619D01*
X54142857Y-150877619D02*
X54238095Y-150925238D01*
X54238095Y-150925238D02*
X54285714Y-150972857D01*
X54285714Y-150972857D02*
X54333333Y-151068095D01*
X54333333Y-151068095D02*
X54333333Y-151210952D01*
X54333333Y-151210952D02*
X54285714Y-151306190D01*
X54285714Y-151306190D02*
X54238095Y-151353809D01*
X54238095Y-151353809D02*
X54142857Y-151401428D01*
X54142857Y-151401428D02*
X53761905Y-151401428D01*
X54761905Y-150877619D02*
X54761905Y-151687142D01*
X54761905Y-151687142D02*
X54809524Y-151782380D01*
X54809524Y-151782380D02*
X54857143Y-151830000D01*
X54857143Y-151830000D02*
X54952381Y-151877619D01*
X54952381Y-151877619D02*
X55142857Y-151877619D01*
X55142857Y-151877619D02*
X55238095Y-151830000D01*
X55238095Y-151830000D02*
X55285714Y-151782380D01*
X55285714Y-151782380D02*
X55333333Y-151687142D01*
X55333333Y-151687142D02*
X55333333Y-150877619D01*
X55809524Y-151877619D02*
X55809524Y-150877619D01*
X55809524Y-150877619D02*
X56142857Y-151591904D01*
X56142857Y-151591904D02*
X56476190Y-150877619D01*
X56476190Y-150877619D02*
X56476190Y-151877619D01*
X56952381Y-151353809D02*
X57285714Y-151353809D01*
X57428571Y-151877619D02*
X56952381Y-151877619D01*
X56952381Y-151877619D02*
X56952381Y-150877619D01*
X56952381Y-150877619D02*
X57428571Y-150877619D01*
X57857143Y-151877619D02*
X57857143Y-150877619D01*
X57857143Y-150877619D02*
X58428571Y-151877619D01*
X58428571Y-151877619D02*
X58428571Y-150877619D01*
X58761905Y-150877619D02*
X59333333Y-150877619D01*
X59047619Y-151877619D02*
X59047619Y-150877619D01*
X59619048Y-151830000D02*
X59761905Y-151877619D01*
X59761905Y-151877619D02*
X60000000Y-151877619D01*
X60000000Y-151877619D02*
X60095238Y-151830000D01*
X60095238Y-151830000D02*
X60142857Y-151782380D01*
X60142857Y-151782380D02*
X60190476Y-151687142D01*
X60190476Y-151687142D02*
X60190476Y-151591904D01*
X60190476Y-151591904D02*
X60142857Y-151496666D01*
X60142857Y-151496666D02*
X60095238Y-151449047D01*
X60095238Y-151449047D02*
X60000000Y-151401428D01*
X60000000Y-151401428D02*
X59809524Y-151353809D01*
X59809524Y-151353809D02*
X59714286Y-151306190D01*
X59714286Y-151306190D02*
X59666667Y-151258571D01*
X59666667Y-151258571D02*
X59619048Y-151163333D01*
X59619048Y-151163333D02*
X59619048Y-151068095D01*
X59619048Y-151068095D02*
X59666667Y-150972857D01*
X59666667Y-150972857D02*
X59714286Y-150925238D01*
X59714286Y-150925238D02*
X59809524Y-150877619D01*
X59809524Y-150877619D02*
X60047619Y-150877619D01*
X60047619Y-150877619D02*
X60190476Y-150925238D01*
X104238095Y-151627619D02*
X104238095Y-150627619D01*
X104238095Y-150627619D02*
X104476190Y-150627619D01*
X104476190Y-150627619D02*
X104619047Y-150675238D01*
X104619047Y-150675238D02*
X104714285Y-150770476D01*
X104714285Y-150770476D02*
X104761904Y-150865714D01*
X104761904Y-150865714D02*
X104809523Y-151056190D01*
X104809523Y-151056190D02*
X104809523Y-151199047D01*
X104809523Y-151199047D02*
X104761904Y-151389523D01*
X104761904Y-151389523D02*
X104714285Y-151484761D01*
X104714285Y-151484761D02*
X104619047Y-151580000D01*
X104619047Y-151580000D02*
X104476190Y-151627619D01*
X104476190Y-151627619D02*
X104238095Y-151627619D01*
X105428571Y-150627619D02*
X105619047Y-150627619D01*
X105619047Y-150627619D02*
X105714285Y-150675238D01*
X105714285Y-150675238D02*
X105809523Y-150770476D01*
X105809523Y-150770476D02*
X105857142Y-150960952D01*
X105857142Y-150960952D02*
X105857142Y-151294285D01*
X105857142Y-151294285D02*
X105809523Y-151484761D01*
X105809523Y-151484761D02*
X105714285Y-151580000D01*
X105714285Y-151580000D02*
X105619047Y-151627619D01*
X105619047Y-151627619D02*
X105428571Y-151627619D01*
X105428571Y-151627619D02*
X105333333Y-151580000D01*
X105333333Y-151580000D02*
X105238095Y-151484761D01*
X105238095Y-151484761D02*
X105190476Y-151294285D01*
X105190476Y-151294285D02*
X105190476Y-150960952D01*
X105190476Y-150960952D02*
X105238095Y-150770476D01*
X105238095Y-150770476D02*
X105333333Y-150675238D01*
X105333333Y-150675238D02*
X105428571Y-150627619D01*
X106285714Y-150627619D02*
X106285714Y-151437142D01*
X106285714Y-151437142D02*
X106333333Y-151532380D01*
X106333333Y-151532380D02*
X106380952Y-151580000D01*
X106380952Y-151580000D02*
X106476190Y-151627619D01*
X106476190Y-151627619D02*
X106666666Y-151627619D01*
X106666666Y-151627619D02*
X106761904Y-151580000D01*
X106761904Y-151580000D02*
X106809523Y-151532380D01*
X106809523Y-151532380D02*
X106857142Y-151437142D01*
X106857142Y-151437142D02*
X106857142Y-150627619D01*
X107666666Y-151103809D02*
X107809523Y-151151428D01*
X107809523Y-151151428D02*
X107857142Y-151199047D01*
X107857142Y-151199047D02*
X107904761Y-151294285D01*
X107904761Y-151294285D02*
X107904761Y-151437142D01*
X107904761Y-151437142D02*
X107857142Y-151532380D01*
X107857142Y-151532380D02*
X107809523Y-151580000D01*
X107809523Y-151580000D02*
X107714285Y-151627619D01*
X107714285Y-151627619D02*
X107333333Y-151627619D01*
X107333333Y-151627619D02*
X107333333Y-150627619D01*
X107333333Y-150627619D02*
X107666666Y-150627619D01*
X107666666Y-150627619D02*
X107761904Y-150675238D01*
X107761904Y-150675238D02*
X107809523Y-150722857D01*
X107809523Y-150722857D02*
X107857142Y-150818095D01*
X107857142Y-150818095D02*
X107857142Y-150913333D01*
X107857142Y-150913333D02*
X107809523Y-151008571D01*
X107809523Y-151008571D02*
X107761904Y-151056190D01*
X107761904Y-151056190D02*
X107666666Y-151103809D01*
X107666666Y-151103809D02*
X107333333Y-151103809D01*
X108809523Y-151627619D02*
X108333333Y-151627619D01*
X108333333Y-151627619D02*
X108333333Y-150627619D01*
X109142857Y-151103809D02*
X109476190Y-151103809D01*
X109619047Y-151627619D02*
X109142857Y-151627619D01*
X109142857Y-151627619D02*
X109142857Y-150627619D01*
X109142857Y-150627619D02*
X109619047Y-150627619D01*
X111380952Y-151532380D02*
X111333333Y-151580000D01*
X111333333Y-151580000D02*
X111190476Y-151627619D01*
X111190476Y-151627619D02*
X111095238Y-151627619D01*
X111095238Y-151627619D02*
X110952381Y-151580000D01*
X110952381Y-151580000D02*
X110857143Y-151484761D01*
X110857143Y-151484761D02*
X110809524Y-151389523D01*
X110809524Y-151389523D02*
X110761905Y-151199047D01*
X110761905Y-151199047D02*
X110761905Y-151056190D01*
X110761905Y-151056190D02*
X110809524Y-150865714D01*
X110809524Y-150865714D02*
X110857143Y-150770476D01*
X110857143Y-150770476D02*
X110952381Y-150675238D01*
X110952381Y-150675238D02*
X111095238Y-150627619D01*
X111095238Y-150627619D02*
X111190476Y-150627619D01*
X111190476Y-150627619D02*
X111333333Y-150675238D01*
X111333333Y-150675238D02*
X111380952Y-150722857D01*
X112000000Y-150627619D02*
X112190476Y-150627619D01*
X112190476Y-150627619D02*
X112285714Y-150675238D01*
X112285714Y-150675238D02*
X112380952Y-150770476D01*
X112380952Y-150770476D02*
X112428571Y-150960952D01*
X112428571Y-150960952D02*
X112428571Y-151294285D01*
X112428571Y-151294285D02*
X112380952Y-151484761D01*
X112380952Y-151484761D02*
X112285714Y-151580000D01*
X112285714Y-151580000D02*
X112190476Y-151627619D01*
X112190476Y-151627619D02*
X112000000Y-151627619D01*
X112000000Y-151627619D02*
X111904762Y-151580000D01*
X111904762Y-151580000D02*
X111809524Y-151484761D01*
X111809524Y-151484761D02*
X111761905Y-151294285D01*
X111761905Y-151294285D02*
X111761905Y-150960952D01*
X111761905Y-150960952D02*
X111809524Y-150770476D01*
X111809524Y-150770476D02*
X111904762Y-150675238D01*
X111904762Y-150675238D02*
X112000000Y-150627619D01*
X112857143Y-151627619D02*
X112857143Y-150627619D01*
X112857143Y-150627619D02*
X113190476Y-151341904D01*
X113190476Y-151341904D02*
X113523809Y-150627619D01*
X113523809Y-150627619D02*
X113523809Y-151627619D01*
X114333333Y-151103809D02*
X114476190Y-151151428D01*
X114476190Y-151151428D02*
X114523809Y-151199047D01*
X114523809Y-151199047D02*
X114571428Y-151294285D01*
X114571428Y-151294285D02*
X114571428Y-151437142D01*
X114571428Y-151437142D02*
X114523809Y-151532380D01*
X114523809Y-151532380D02*
X114476190Y-151580000D01*
X114476190Y-151580000D02*
X114380952Y-151627619D01*
X114380952Y-151627619D02*
X114000000Y-151627619D01*
X114000000Y-151627619D02*
X114000000Y-150627619D01*
X114000000Y-150627619D02*
X114333333Y-150627619D01*
X114333333Y-150627619D02*
X114428571Y-150675238D01*
X114428571Y-150675238D02*
X114476190Y-150722857D01*
X114476190Y-150722857D02*
X114523809Y-150818095D01*
X114523809Y-150818095D02*
X114523809Y-150913333D01*
X114523809Y-150913333D02*
X114476190Y-151008571D01*
X114476190Y-151008571D02*
X114428571Y-151056190D01*
X114428571Y-151056190D02*
X114333333Y-151103809D01*
X114333333Y-151103809D02*
X114000000Y-151103809D01*
X115190476Y-150627619D02*
X115380952Y-150627619D01*
X115380952Y-150627619D02*
X115476190Y-150675238D01*
X115476190Y-150675238D02*
X115571428Y-150770476D01*
X115571428Y-150770476D02*
X115619047Y-150960952D01*
X115619047Y-150960952D02*
X115619047Y-151294285D01*
X115619047Y-151294285D02*
X115571428Y-151484761D01*
X115571428Y-151484761D02*
X115476190Y-151580000D01*
X115476190Y-151580000D02*
X115380952Y-151627619D01*
X115380952Y-151627619D02*
X115190476Y-151627619D01*
X115190476Y-151627619D02*
X115095238Y-151580000D01*
X115095238Y-151580000D02*
X115000000Y-151484761D01*
X115000000Y-151484761D02*
X114952381Y-151294285D01*
X114952381Y-151294285D02*
X114952381Y-150960952D01*
X114952381Y-150960952D02*
X115000000Y-150770476D01*
X115000000Y-150770476D02*
X115095238Y-150675238D01*
X115095238Y-150675238D02*
X115190476Y-150627619D01*
X117333333Y-151627619D02*
X116761905Y-151627619D01*
X117047619Y-151627619D02*
X117047619Y-150627619D01*
X117047619Y-150627619D02*
X116952381Y-150770476D01*
X116952381Y-150770476D02*
X116857143Y-150865714D01*
X116857143Y-150865714D02*
X116761905Y-150913333D01*
X117761905Y-151532380D02*
X117809524Y-151580000D01*
X117809524Y-151580000D02*
X117761905Y-151627619D01*
X117761905Y-151627619D02*
X117714286Y-151580000D01*
X117714286Y-151580000D02*
X117761905Y-151532380D01*
X117761905Y-151532380D02*
X117761905Y-151627619D01*
X118761904Y-151627619D02*
X118190476Y-151627619D01*
X118476190Y-151627619D02*
X118476190Y-150627619D01*
X118476190Y-150627619D02*
X118380952Y-150770476D01*
X118380952Y-150770476D02*
X118285714Y-150865714D01*
X118285714Y-150865714D02*
X118190476Y-150913333D01*
D11*
%TO.C,R1*%
X86180000Y-63000000D02*
X85070000Y-63000000D01*
X85070000Y-64920000D02*
X85070000Y-61080000D01*
X85070000Y-61080000D02*
X74930000Y-61080000D01*
X74930000Y-64920000D02*
X85070000Y-64920000D01*
X74930000Y-61080000D02*
X74930000Y-64920000D01*
X73820000Y-63000000D02*
X74930000Y-63000000D01*
%TO.C,SW2*%
X97620000Y-51350000D02*
X97620000Y-53550000D01*
X97150000Y-49380000D02*
X91950000Y-49380000D01*
X96550000Y-55620000D02*
X92150000Y-55620000D01*
X91380000Y-53550000D02*
X91380000Y-51350000D01*
X95914214Y-52500000D02*
G75*
G03*
X95914214Y-52500000I-1414214J0D01*
G01*
%TO.C,R2*%
X84190000Y-89000000D02*
X85300000Y-89000000D01*
X85300000Y-87080000D02*
X85300000Y-90920000D01*
X85300000Y-90920000D02*
X95440000Y-90920000D01*
X95440000Y-87080000D02*
X85300000Y-87080000D01*
X95440000Y-90920000D02*
X95440000Y-87080000D01*
X96550000Y-89000000D02*
X95440000Y-89000000D01*
%TO.C,D7*%
X101514000Y-123315000D02*
X101670000Y-123315000D01*
X103830000Y-123315000D02*
X103986000Y-123315000D01*
X101671392Y-120082666D02*
G75*
G03*
X101514485Y-123314999I1078608J-1672334D01*
G01*
X101670164Y-120713871D02*
G75*
G03*
X101670001Y-122795960I1079836J-1041129D01*
G01*
X103829999Y-122795960D02*
G75*
G03*
X103829836Y-120713871I-1079999J1040960D01*
G01*
X103985515Y-123314999D02*
G75*
G03*
X103828608Y-120082666I-1235515J1559999D01*
G01*
%TO.C,SW1*%
X62880000Y-53650000D02*
X62880000Y-51450000D01*
X63350000Y-55620000D02*
X68550000Y-55620000D01*
X63950000Y-49380000D02*
X68350000Y-49380000D01*
X69120000Y-51450000D02*
X69120000Y-53650000D01*
X67414214Y-52500000D02*
G75*
G03*
X67414214Y-52500000I-1414214J0D01*
G01*
%TO.C,J1*%
X63580000Y-137500000D02*
X74080000Y-137500000D01*
X60430000Y-134230000D02*
X61230000Y-134230000D01*
X60430000Y-134230000D02*
X60430000Y-133370000D01*
X74080000Y-133800000D02*
X74080000Y-137500000D01*
X63580000Y-133720000D02*
X63580000Y-137500000D01*
X63580000Y-128500000D02*
X63580000Y-132280000D01*
X63580000Y-128500000D02*
X74080000Y-128500000D01*
X74080000Y-128500000D02*
X74080000Y-132200000D01*
X69880000Y-133000000D02*
G75*
G03*
X69880000Y-133000000I-1800000J0D01*
G01*
%TO.C,RV3*%
X103620000Y-55845000D02*
X103620000Y-51125000D01*
X104810000Y-55845000D02*
X103630000Y-55845000D01*
X107710000Y-55845000D02*
X107180000Y-55845000D01*
X110160000Y-55845000D02*
X109330000Y-55845000D01*
X113370000Y-55845000D02*
X111880000Y-55845000D01*
X113370000Y-55845000D02*
X113370000Y-51125000D01*
X103630000Y-47315000D02*
X103630000Y-44255000D01*
X113370000Y-47315000D02*
X113370000Y-44255000D01*
X113370000Y-44255000D02*
X103630000Y-44255000D01*
%TO.C,D5*%
X106685000Y-92764000D02*
X106685000Y-92920000D01*
X106685000Y-95080000D02*
X106685000Y-95236000D01*
X109917334Y-92921392D02*
G75*
G03*
X106685001Y-92764485I-1672334J-1078608D01*
G01*
X109286129Y-92920164D02*
G75*
G03*
X107204040Y-92920001I-1041129J-1079836D01*
G01*
X107204040Y-95079999D02*
G75*
G03*
X109286129Y-95079836I1040960J1079999D01*
G01*
X106685001Y-95235515D02*
G75*
G03*
X109917334Y-95078608I1559999J1235515D01*
G01*
%TO.C,R7*%
X63570000Y-98000000D02*
X64680000Y-98000000D01*
X64680000Y-96080000D02*
X64680000Y-99920000D01*
X64680000Y-99920000D02*
X74820000Y-99920000D01*
X74820000Y-96080000D02*
X64680000Y-96080000D01*
X74820000Y-99920000D02*
X74820000Y-96080000D01*
X75930000Y-98000000D02*
X74820000Y-98000000D01*
%TO.C,R4*%
X96550000Y-98000000D02*
X95440000Y-98000000D01*
X95440000Y-99920000D02*
X95440000Y-96080000D01*
X95440000Y-96080000D02*
X85300000Y-96080000D01*
X85300000Y-99920000D02*
X95440000Y-99920000D01*
X85300000Y-96080000D02*
X85300000Y-99920000D01*
X84190000Y-98000000D02*
X85300000Y-98000000D01*
%TO.C,RV7*%
X46920000Y-112511666D02*
X46920000Y-107791666D01*
X48110000Y-112511666D02*
X46930000Y-112511666D01*
X51010000Y-112511666D02*
X50480000Y-112511666D01*
X53460000Y-112511666D02*
X52630000Y-112511666D01*
X56670000Y-112511666D02*
X55180000Y-112511666D01*
X56670000Y-112511666D02*
X56670000Y-107791666D01*
X46930000Y-103981666D02*
X46930000Y-100921666D01*
X56670000Y-103981666D02*
X56670000Y-100921666D01*
X56670000Y-100921666D02*
X46930000Y-100921666D01*
%TO.C,J6*%
X96800000Y-139650000D02*
X86300000Y-139650000D01*
X99950000Y-142920000D02*
X99150000Y-142920000D01*
X99950000Y-142920000D02*
X99950000Y-143780000D01*
X86300000Y-143350000D02*
X86300000Y-139650000D01*
X96800000Y-143430000D02*
X96800000Y-139650000D01*
X96800000Y-148650000D02*
X96800000Y-144870000D01*
X96800000Y-148650000D02*
X86300000Y-148650000D01*
X86300000Y-148650000D02*
X86300000Y-144950000D01*
X94100000Y-144150000D02*
G75*
G03*
X94100000Y-144150000I-1800000J0D01*
G01*
%TO.C,RV8*%
X75270000Y-112511666D02*
X75270000Y-107791666D01*
X76460000Y-112511666D02*
X75280000Y-112511666D01*
X79360000Y-112511666D02*
X78830000Y-112511666D01*
X81810000Y-112511666D02*
X80980000Y-112511666D01*
X85020000Y-112511666D02*
X83530000Y-112511666D01*
X85020000Y-112511666D02*
X85020000Y-107791666D01*
X75280000Y-103981666D02*
X75280000Y-100921666D01*
X85020000Y-103981666D02*
X85020000Y-100921666D01*
X85020000Y-100921666D02*
X75280000Y-100921666D01*
%TO.C,D4*%
X115486000Y-62435000D02*
X115330000Y-62435000D01*
X113170000Y-62435000D02*
X113014000Y-62435000D01*
X115328608Y-65667334D02*
G75*
G03*
X115485515Y-62435001I-1078608J1672334D01*
G01*
X115329836Y-65036129D02*
G75*
G03*
X115329999Y-62954040I-1079836J1041129D01*
G01*
X113170001Y-62954040D02*
G75*
G03*
X113170164Y-65036129I1079999J-1040960D01*
G01*
X113014485Y-62435001D02*
G75*
G03*
X113171392Y-65667334I1235515J-1559999D01*
G01*
%TO.C,RV11*%
X103620000Y-140845000D02*
X103620000Y-136125000D01*
X104810000Y-140845000D02*
X103630000Y-140845000D01*
X107710000Y-140845000D02*
X107180000Y-140845000D01*
X110160000Y-140845000D02*
X109330000Y-140845000D01*
X113370000Y-140845000D02*
X111880000Y-140845000D01*
X113370000Y-140845000D02*
X113370000Y-136125000D01*
X103630000Y-132315000D02*
X103630000Y-129255000D01*
X113370000Y-132315000D02*
X113370000Y-129255000D01*
X113370000Y-129255000D02*
X103630000Y-129255000D01*
%TO.C,RV2*%
X75270000Y-55845000D02*
X75270000Y-51125000D01*
X76460000Y-55845000D02*
X75280000Y-55845000D01*
X79360000Y-55845000D02*
X78830000Y-55845000D01*
X81810000Y-55845000D02*
X80980000Y-55845000D01*
X85020000Y-55845000D02*
X83530000Y-55845000D01*
X85020000Y-55845000D02*
X85020000Y-51125000D01*
X75280000Y-47315000D02*
X75280000Y-44255000D01*
X85020000Y-47315000D02*
X85020000Y-44255000D01*
X85020000Y-44255000D02*
X75280000Y-44255000D01*
%TO.C,D6*%
X113014000Y-123315000D02*
X113170000Y-123315000D01*
X115330000Y-123315000D02*
X115486000Y-123315000D01*
X113171392Y-120082666D02*
G75*
G03*
X113014485Y-123314999I1078608J-1672334D01*
G01*
X113170164Y-120713871D02*
G75*
G03*
X113170001Y-122795960I1079836J-1041129D01*
G01*
X115329999Y-122795960D02*
G75*
G03*
X115329836Y-120713871I-1079999J1040960D01*
G01*
X115485515Y-123314999D02*
G75*
G03*
X115328608Y-120082666I-1235515J1559999D01*
G01*
%TO.C,RV5*%
X75270000Y-84178333D02*
X75270000Y-79458333D01*
X76460000Y-84178333D02*
X75280000Y-84178333D01*
X79360000Y-84178333D02*
X78830000Y-84178333D01*
X81810000Y-84178333D02*
X80980000Y-84178333D01*
X85020000Y-84178333D02*
X83530000Y-84178333D01*
X85020000Y-84178333D02*
X85020000Y-79458333D01*
X75280000Y-75648333D02*
X75280000Y-72588333D01*
X85020000Y-75648333D02*
X85020000Y-72588333D01*
X85020000Y-72588333D02*
X75280000Y-72588333D01*
%TO.C,D1*%
X64435000Y-45514000D02*
X64435000Y-45670000D01*
X64435000Y-47830000D02*
X64435000Y-47986000D01*
X67667334Y-45671392D02*
G75*
G03*
X64435001Y-45514485I-1672334J-1078608D01*
G01*
X67036129Y-45670164D02*
G75*
G03*
X64954040Y-45670001I-1041129J-1079836D01*
G01*
X64954040Y-47829999D02*
G75*
G03*
X67036129Y-47829836I1040960J1079999D01*
G01*
X64435001Y-47985515D02*
G75*
G03*
X67667334Y-47828608I1559999J1235515D01*
G01*
%TO.C,RV10*%
X46920000Y-140845000D02*
X46920000Y-136125000D01*
X48110000Y-140845000D02*
X46930000Y-140845000D01*
X51010000Y-140845000D02*
X50480000Y-140845000D01*
X53460000Y-140845000D02*
X52630000Y-140845000D01*
X56670000Y-140845000D02*
X55180000Y-140845000D01*
X56670000Y-140845000D02*
X56670000Y-136125000D01*
X46930000Y-132315000D02*
X46930000Y-129255000D01*
X56670000Y-132315000D02*
X56670000Y-129255000D01*
X56670000Y-129255000D02*
X46930000Y-129255000D01*
%TO.C,D2*%
X92935000Y-45514000D02*
X92935000Y-45670000D01*
X92935000Y-47830000D02*
X92935000Y-47986000D01*
X96167334Y-45671392D02*
G75*
G03*
X92935001Y-45514485I-1672334J-1078608D01*
G01*
X95536129Y-45670164D02*
G75*
G03*
X93454040Y-45670001I-1041129J-1079836D01*
G01*
X93454040Y-47829999D02*
G75*
G03*
X95536129Y-47829836I1040960J1079999D01*
G01*
X92935001Y-47985515D02*
G75*
G03*
X96167334Y-47828608I1559999J1235515D01*
G01*
%TO.C,RV4*%
X46920000Y-84178333D02*
X46920000Y-79458333D01*
X48110000Y-84178333D02*
X46930000Y-84178333D01*
X51010000Y-84178333D02*
X50480000Y-84178333D01*
X53460000Y-84178333D02*
X52630000Y-84178333D01*
X56670000Y-84178333D02*
X55180000Y-84178333D01*
X56670000Y-84178333D02*
X56670000Y-79458333D01*
X46930000Y-75648333D02*
X46930000Y-72588333D01*
X56670000Y-75648333D02*
X56670000Y-72588333D01*
X56670000Y-72588333D02*
X46930000Y-72588333D01*
%TO.C,D3*%
X103986000Y-62435000D02*
X103830000Y-62435000D01*
X101670000Y-62435000D02*
X101514000Y-62435000D01*
X103828608Y-65667334D02*
G75*
G03*
X103985515Y-62435001I-1078608J1672334D01*
G01*
X103829836Y-65036129D02*
G75*
G03*
X103829999Y-62954040I-1079836J1041129D01*
G01*
X101670001Y-62954040D02*
G75*
G03*
X101670164Y-65036129I1079999J-1040960D01*
G01*
X101514485Y-62435001D02*
G75*
G03*
X101671392Y-65667334I1235515J-1559999D01*
G01*
%TO.C,J2*%
X63580000Y-148650000D02*
X74080000Y-148650000D01*
X60430000Y-145380000D02*
X61230000Y-145380000D01*
X60430000Y-145380000D02*
X60430000Y-144520000D01*
X74080000Y-144950000D02*
X74080000Y-148650000D01*
X63580000Y-144870000D02*
X63580000Y-148650000D01*
X63580000Y-139650000D02*
X63580000Y-143430000D01*
X63580000Y-139650000D02*
X74080000Y-139650000D01*
X74080000Y-139650000D02*
X74080000Y-143350000D01*
X69880000Y-144150000D02*
G75*
G03*
X69880000Y-144150000I-1800000J0D01*
G01*
%TO.C,R3*%
X96550000Y-93500000D02*
X95440000Y-93500000D01*
X95440000Y-95420000D02*
X95440000Y-91580000D01*
X95440000Y-91580000D02*
X85300000Y-91580000D01*
X85300000Y-95420000D02*
X95440000Y-95420000D01*
X85300000Y-91580000D02*
X85300000Y-95420000D01*
X84190000Y-93500000D02*
X85300000Y-93500000D01*
%TO.C,J3*%
X75650000Y-133444794D02*
X75650000Y-143944794D01*
X78920000Y-130294794D02*
X78920000Y-131094794D01*
X78920000Y-130294794D02*
X79780000Y-130294794D01*
X79350000Y-143944794D02*
X75650000Y-143944794D01*
X79430000Y-133444794D02*
X75650000Y-133444794D01*
X84650000Y-133444794D02*
X80870000Y-133444794D01*
X84650000Y-133444794D02*
X84650000Y-143944794D01*
X84650000Y-143944794D02*
X80950000Y-143944794D01*
X81950000Y-137944794D02*
G75*
G03*
X81950000Y-137944794I-1800000J0D01*
G01*
%TO.C,RV1*%
X46920000Y-55845000D02*
X46920000Y-51125000D01*
X48110000Y-55845000D02*
X46930000Y-55845000D01*
X51010000Y-55845000D02*
X50480000Y-55845000D01*
X53460000Y-55845000D02*
X52630000Y-55845000D01*
X56670000Y-55845000D02*
X55180000Y-55845000D01*
X56670000Y-55845000D02*
X56670000Y-51125000D01*
X46930000Y-47315000D02*
X46930000Y-44255000D01*
X56670000Y-47315000D02*
X56670000Y-44255000D01*
X56670000Y-44255000D02*
X46930000Y-44255000D01*
%TO.C,J5*%
X96800000Y-128500000D02*
X86300000Y-128500000D01*
X99950000Y-131770000D02*
X99150000Y-131770000D01*
X99950000Y-131770000D02*
X99950000Y-132630000D01*
X86300000Y-132200000D02*
X86300000Y-128500000D01*
X96800000Y-132280000D02*
X96800000Y-128500000D01*
X96800000Y-137500000D02*
X96800000Y-133720000D01*
X96800000Y-137500000D02*
X86300000Y-137500000D01*
X86300000Y-137500000D02*
X86300000Y-133800000D01*
X94100000Y-133000000D02*
G75*
G03*
X94100000Y-133000000I-1800000J0D01*
G01*
%TO.C,RV6*%
X103620000Y-84178333D02*
X103620000Y-79458333D01*
X104810000Y-84178333D02*
X103630000Y-84178333D01*
X107710000Y-84178333D02*
X107180000Y-84178333D01*
X110160000Y-84178333D02*
X109330000Y-84178333D01*
X113370000Y-84178333D02*
X111880000Y-84178333D01*
X113370000Y-84178333D02*
X113370000Y-79458333D01*
X103630000Y-75648333D02*
X103630000Y-72588333D01*
X113370000Y-75648333D02*
X113370000Y-72588333D01*
X113370000Y-72588333D02*
X103630000Y-72588333D01*
%TO.C,SW4*%
X109650000Y-125120000D02*
X107450000Y-125120000D01*
X111620000Y-124650000D02*
X111620000Y-119450000D01*
X105380000Y-124050000D02*
X105380000Y-119650000D01*
X107450000Y-118880000D02*
X109650000Y-118880000D01*
X109914214Y-122000000D02*
G75*
G03*
X109914214Y-122000000I-1414214J0D01*
G01*
%TO.C,R6*%
X63570000Y-93500000D02*
X64680000Y-93500000D01*
X64680000Y-91580000D02*
X64680000Y-95420000D01*
X64680000Y-95420000D02*
X74820000Y-95420000D01*
X74820000Y-91580000D02*
X64680000Y-91580000D01*
X74820000Y-95420000D02*
X74820000Y-91580000D01*
X75930000Y-93500000D02*
X74820000Y-93500000D01*
%TO.C,RV9*%
X103620000Y-112511666D02*
X103620000Y-107791666D01*
X104810000Y-112511666D02*
X103630000Y-112511666D01*
X107710000Y-112511666D02*
X107180000Y-112511666D01*
X110160000Y-112511666D02*
X109330000Y-112511666D01*
X113370000Y-112511666D02*
X111880000Y-112511666D01*
X113370000Y-112511666D02*
X113370000Y-107791666D01*
X103630000Y-103981666D02*
X103630000Y-100921666D01*
X113370000Y-103981666D02*
X113370000Y-100921666D01*
X113370000Y-100921666D02*
X103630000Y-100921666D01*
%TO.C,SW3*%
X109650000Y-67120000D02*
X107450000Y-67120000D01*
X111620000Y-66650000D02*
X111620000Y-61450000D01*
X105380000Y-66050000D02*
X105380000Y-61650000D01*
X107450000Y-60880000D02*
X109650000Y-60880000D01*
X109914214Y-64000000D02*
G75*
G03*
X109914214Y-64000000I-1414214J0D01*
G01*
%TO.C,SW5*%
X77030000Y-150150000D02*
X77030000Y-147950000D01*
X77500000Y-152120000D02*
X82700000Y-152120000D01*
X78100000Y-145880000D02*
X82500000Y-145880000D01*
X83270000Y-147950000D02*
X83270000Y-150150000D01*
X81564214Y-149000000D02*
G75*
G03*
X81564214Y-149000000I-1414214J0D01*
G01*
%TO.C,R5*%
X63570000Y-89000000D02*
X64680000Y-89000000D01*
X64680000Y-87080000D02*
X64680000Y-90920000D01*
X64680000Y-90920000D02*
X74820000Y-90920000D01*
X74820000Y-87080000D02*
X64680000Y-87080000D01*
X74820000Y-90920000D02*
X74820000Y-87080000D01*
X75930000Y-89000000D02*
X74820000Y-89000000D01*
%TD*%
M02*
